<svg width="1088" height="640" xmlns="http://www.w3.org/2000/svg" version="1.1">
 <title>048057AE-B757-4538-9F9F-FC11CA3EB8A8</title>

 <g>
  <title>Layer 1</title>
  <path d="m642.32575,153.04246l-102.26474,0l0,444.45005l-121.11589,0l0,-444.45005l-102.75757,0l0,-110.53495l326.13819,0l0,110.53495l0.00001,0z" id="Vector" fill="#ad1519" stroke="null"/>
  <path d="m748.89546,431.87288c-27.47595,8.63358 -55.81435,14.10562 -84.52246,16.17286l-30.80262,0.72959l104.97537,147.9879l149.45437,0l-122.22483,-170.24076l-16.87983,5.35041z" id="Vector" fill="#ad1519" stroke="null"/>
  <path d="m359.67892,520.64139l-5.79089,-31.98092l-17.9887,30.64327l-37.94886,-2.18878l26.36701,22.25294l-18.1119,31.73774l34.3757,-17.63212l34.00608,21.52335l-10.59604,-32.22417l31.66507,-20.06408l-35.97747,-2.06724l0,0.00001z" id="Vector" fill="#fabd00" stroke="null"/>
  <path d="m260.01078,410.83587l-5.42127,-28.81937l-16.63342,27.60335l-35.36136,-2.06724l24.51883,20.06408l-21.68499,28.33295l36.83992,-15.68651l26.73671,19.33448l-4.80523,-28.81929l29.44734,-17.99684l-33.63654,-1.94561l0.00001,0z" id="Vector" fill="#fabd00" stroke="null"/>
  <path d="m251.74824,291.54532l-4.92836,-24.56327l-14.90852,23.34725l-31.91148,-1.82399l22.17789,17.26725l-19.46726,23.95538l33.26684,-13.13285l24.026,16.41603l-4.43553,-24.56327l26.49022,-15.20009l-30.30979,-1.70244l-0.00001,0z" id="Vector" fill="#fabd00" stroke="null"/>
  <path d="m312.3672,199.25022l-4.43553,-19.45603l-12.93713,18.36164l-27.72237,-1.58081l19.34405,13.7409l-16.75663,18.84806l28.83123,-10.21448l20.94582,13.01131l-3.94278,-19.33448l23.04042,-11.91684l-26.36709,-1.45927l0.00001,0z" id="Vector" fill="#fabd00" stroke="null"/>
  <path d="m813.09177,96.50151c-19.46726,-16.90245 -43.00043,-30.15693 -70.846,-39.27702c-30.06338,-9.80911 -59.4696,-14.47042 -88.21875,-13.98399c0,36.8449 0.24641,73.20354 0,110.2917c19.59047,1.94561 40.6595,7.17448 59.51072,21.40172c18.85115,14.22725 28.21519,35.14254 28.21519,62.7459l0,1.58081c0,23.83368 -8.99443,43.77621 -26.98312,59.94906c-17.98878,16.17294 -43.24692,24.19847 -75.89765,24.19847l-87.72592,0.12163c0.24641,36.48019 0,72.23078 0,108.58934l83.53672,0c33.14363,0 64.19267,-4.13439 93.27039,-12.28163c28.95444,-8.14724 54.33579,-20.5505 75.89765,-36.96661c21.68507,-16.41603 38.68819,-36.72336 51.0092,-61.16508c12.32102,-24.3201 18.60481,-52.65304 18.60481,-84.99884l0,-1.58081c0,-28.33295 -5.17485,-54.3554 -15.64776,-77.94591c-10.47291,-23.59058 -25.25815,-43.77629 -44.72549,-60.67874l0.00001,0z" id="Vector" fill="#fabd00" stroke="null"/>
 </g>
</svg>